<?xml version="1.0" encoding="utf-8"?>
<!-- Generator: Adobe Illustrator 16.0.0, SVG Export Plug-In . SVG Version: 6.00 Build 0)  -->
<!DOCTYPE svg PUBLIC "-//W3C//DTD SVG 1.1//EN" "http://www.w3.org/Graphics/SVG/1.1/DTD/svg11.dtd">
<svg version="1.1" id="Layer_1" xmlns="http://www.w3.org/2000/svg" xmlns:xlink="http://www.w3.org/1999/xlink" x="0px" y="0px"
	 width="822.05px" height="737.01px" viewBox="0 0 822.05 737.01" enable-background="new 0 0 822.05 737.01" xml:space="preserve">
<g>
	<g>
		<path d="M798.59,330.351L438.735,20.201c-15.801-13.601-39.615-13.601-55.398,0L23.473,330.351
			c-12.654,10.905-16.829,27.709-10.665,42.81c6.188,15.096,21.23,24.851,38.366,24.851h57.472v310.754
			c0,12.318,10.569,22.301,23.593,22.301h197.25c13.021,0,23.583-9.982,23.583-22.301V520.08h115.923v188.685
			c0,12.318,10.556,22.301,23.59,22.301h197.235c13.024,0,23.601-9.982,23.601-22.301V398.011h57.487
			c17.112,0,32.152-9.755,38.358-24.851C815.426,358.06,811.248,341.255,798.59,330.351z"/>
	</g>
</g>
</svg>
